<?xml version="1.0" encoding="utf-8"?>
<svg xmlns="http://www.w3.org/2000/svg" viewBox="0 0 48 48" width="96" height="96">
  <circle cx="24" cy="24" r="20" fill="#eceff1" />
  <path fill="#e53935" d="M16.689,13.179c-0.79,0.172-1.574,0.28-2.352,0.325c0.032-0.829,0.124-1.628,0.282-2.394 c-0.775,0.118-1.489,0.115-2.148,0c0.176,0.806,0.285,1.606,0.328,2.399c-0.806-0.041-1.606-0.15-2.398-0.329 c0.117,0.712,0.116,1.428,0,2.148c0.827-0.144,1.625-0.233,2.397-0.272c-0.043,0.787-0.152,1.568-0.328,2.342 c0.712-0.117,1.428-0.116,2.148,0c-0.141-0.81-0.228-1.592-0.269-2.35c0.81,0.034,1.589,0.126,2.339,0.281 C16.571,14.551,16.574,13.837,16.689,13.179z" />
  <path fill="#e53935" d="M37.689,13.179c-0.79,0.172-1.574,0.28-2.352,0.325c0.032-0.829,0.124-1.628,0.282-2.394 c-0.775,0.118-1.489,0.115-2.148,0c0.176,0.806,0.285,1.606,0.328,2.399c-0.806-0.041-1.606-0.15-2.398-0.329 c0.117,0.712,0.116,1.428,0,2.148c0.827-0.144,1.625-0.233,2.397-0.272c-0.043,0.787-0.152,1.568-0.328,2.342 c0.712-0.117,1.428-0.116,2.148,0c-0.141-0.81-0.228-1.592-0.269-2.35c0.81,0.034,1.589,0.126,2.339,0.281 C37.571,14.551,37.574,13.837,37.689,13.179z" />
  <path fill="#e53935" d="M16.689,33.179c-0.79,0.172-1.574,0.28-2.352,0.325c0.032-0.829,0.124-1.628,0.282-2.394 c-0.775,0.118-1.489,0.115-2.148,0c0.176,0.806,0.285,1.606,0.328,2.399c-0.806-0.041-1.606-0.15-2.398-0.329 c0.117,0.712,0.116,1.428,0,2.148c0.827-0.144,1.625-0.233,2.397-0.272c-0.043,0.787-0.152,1.568-0.328,2.342 c0.712-0.117,1.428-0.116,2.148,0c-0.141-0.81-0.228-1.592-0.269-2.35c0.81,0.034,1.589,0.126,2.339,0.281 C16.571,34.551,16.574,33.837,16.689,33.179z" />
  <path fill="#e53935" d="M37.689,33.179c-0.79,0.172-1.574,0.28-2.352,0.325c0.032-0.829,0.124-1.628,0.282-2.394 c-0.775,0.118-1.489,0.115-2.148,0c0.176,0.806,0.285,1.606,0.328,2.399c-0.806-0.041-1.606-0.15-2.398-0.329 c0.117,0.712,0.116,1.428,0,2.148c0.827-0.144,1.625-0.233,2.397-0.272c-0.043,0.787-0.152,1.568-0.328,2.342 c0.712-0.117,1.428-0.116,2.148,0c-0.141-0.81-0.228-1.592-0.269-2.35c0.81,0.034,1.589,0.126,2.339,0.281 C37.571,34.551,37.574,33.837,37.689,33.179z" />
  <path fill="#e53935" d="M4.402,28H20v15.598C21.293,43.861,22.63,44,24,44s2.707-0.139,4-0.402V28h15.598 C43.861,26.707,44,25.37,44,24s-0.139-2.707-0.402-4H28V4.402C26.707,4.139,25.37,4,24,4s-2.707,0.139-4,0.402V20H4.402 C4.139,21.293,4,22.63,4,24S4.139,26.707,4.402,28z" />
</svg>